<svg id="Camada_1" data-name="Camada 1" xmlns="http://www.w3.org/2000/svg" viewBox="0 0 34.17 23.67"><defs><style>.cls-1{fill:#ff9f32;}</style></defs><path class="cls-1" d="M3.55,24.08a3.79,3.79,0,0,1-4-4q0-8.3,0-16.59a3.79,3.79,0,0,1,4-3.94h27a3.78,3.78,0,0,1,4,4q0,8.27,0,16.51a3.81,3.81,0,0,1-4,4H3.55ZM30.82,22h.12l.36-.1L22.4,11.7,18,15.62a1.36,1.36,0,0,1-.86.42,1.41,1.41,0,0,1-.87-.42l-4.42-3.9L2.88,21.88A2.6,2.6,0,0,0,3.6,22H30.82ZM1.78,2.87a2.43,2.43,0,0,0-.06.57V20l8.5-9.68ZM32.45,20V3.47a2.45,2.45,0,0,0-.07-.59L24,10.3ZM17.09,13.56,30.43,1.78c-2.07-.05-7.47-.09-13.91-.09-5.94,0-10.79,0-12.78.09Z"/></svg>