<svg id="Camada_1" data-name="Camada 1" xmlns="http://www.w3.org/2000/svg" viewBox="0 0 45.6 40"><defs><style>.cls-1{fill:#ff9f32;}</style></defs><path class="cls-1" d="M0,15c.16-.9.26-1.82.49-2.7A15.65,15.65,0,0,1,7.78,2.68,18.39,18.39,0,0,1,28.84,4c.45.36.84.79,1.29,1.15a1.48,1.48,0,0,0,.69.33c6,1,10.58,3.9,13.23,9.41C46.49,20,46,25,43,29.73a.9.9,0,0,0-.13.88q1.21,3.77,2.4,7.53A1.31,1.31,0,0,1,44.34,40a1.89,1.89,0,0,1-1.09-.19c-2.44-1.21-4.87-2.45-7.29-3.7a1,1,0,0,0-.91,0c-6.6,2.39-12.74,1.59-18.35-2.72a5.62,5.62,0,0,1-1-.86,2.36,2.36,0,0,0-1.41-.71c-1.32-.31-2.63-.7-3.93-1.09a.91.91,0,0,0-.74,0C7.21,32,4.76,33.23,2.29,34.45a1.77,1.77,0,0,1-1,.2,1.3,1.3,0,0,1-1-1.81Q1.48,29,2.71,25.23a.76.76,0,0,0-.1-.77A14.82,14.82,0,0,1,.08,17.52,2.09,2.09,0,0,0,0,17.18ZM41.76,36.05c0-.2-.08-.33-.12-.45-.52-1.64-1-3.28-1.57-4.9a1.92,1.92,0,0,1,.32-1.94,12.25,12.25,0,0,0-.11-14.95A14.52,14.52,0,0,0,29.46,8.09a14.83,14.83,0,0,0-12.08,4.29,12,12,0,0,0-3.67,11,12.66,12.66,0,0,0,6.54,9.16,15.47,15.47,0,0,0,14.42.77,2,2,0,0,1,1.82,0c1.18.64,2.39,1.23,3.59,1.84ZM12.64,28.7l.07-.1-.2-.39a14.56,14.56,0,0,1,.06-13.75c2.53-4.86,6.7-7.61,12-8.75.53-.12,1.06-.18,1.68-.29-.25-.17-.43-.3-.62-.41a15.36,15.36,0,0,0-6.89-2.26A15.11,15.11,0,0,0,7.5,6.16,12.42,12.42,0,0,0,2.68,16.39a12,12,0,0,0,2.53,7.12,1.73,1.73,0,0,1,.3,1.74c-.54,1.63-1,3.27-1.57,4.9-.06.17-.09.33-.15.56l.62-.3C6,29.59,7.6,28.79,9.19,28a1.66,1.66,0,0,1,1.53,0C11.35,28.21,12,28.44,12.64,28.7Z"/><path class="cls-1" d="M22.79,22.69a1.33,1.33,0,1,1,1.31-1.33A1.34,1.34,0,0,1,22.79,22.69Z"/><path class="cls-1" d="M34.78,21.36A1.34,1.34,0,1,1,33.45,20,1.34,1.34,0,0,1,34.78,21.36Z"/><path class="cls-1" d="M29.44,21.37A1.33,1.33,0,1,1,28.13,20,1.34,1.34,0,0,1,29.44,21.37Z"/></svg>